<svg width="71" height="84" viewBox="0 0 71 84" fill="none" xmlns="http://www.w3.org/2000/svg">
<path d="M0 38.867C0 38.3556 0.195957 37.8635 0.547583 37.4921L15.5476 21.6469C16.7908 20.3337 19 21.2135 19 23.0219V78C19 79.1046 18.1046 80 17 80H2C0.895431 80 0 79.1046 0 78V38.867Z" fill="url(#paint0_linear_513_1162)"/>
<path d="M21 23C21 21.8954 21.8954 21 23 21H38C39.1046 21 40 21.8954 40 23V59.0549C40 59.502 39.8502 59.9363 39.5744 60.2883L24.5744 79.4369C23.4023 80.9333 21 80.1044 21 78.2036V23Z" fill="url(#paint1_linear_513_1162)"/>
<path d="M21 2C21 0.895431 21.8954 0 23 0H51.52C52.0571 0 52.5716 0.215995 52.9477 0.599363L67.6637 15.5994C68.9051 16.8647 68.0087 19 66.2361 19H23C21.8954 19 21 18.1046 21 17V2Z" fill="url(#paint2_linear_513_1162)"/>
<path d="M4.75077 1.27414C9.29384 -1.34875 15.1029 0.207696 17.7259 4.75074C20.3488 9.29378 18.7922 15.1028 14.2493 17.7258C9.70619 20.3488 3.89715 18.7923 1.27418 14.2492C-1.34877 9.70614 0.207686 3.8971 4.75077 1.27414Z" fill="url(#paint3_linear_513_1162)"/>
<defs>
<linearGradient id="paint0_linear_513_1162" x1="9.5" y1="28.7551" x2="9.5" y2="75.7823" gradientUnits="userSpaceOnUse">
<stop offset="0.123598" stop-color="#DED1C6"/>
<stop offset="0.485197" stop-color="#A77693"/>
<stop offset="0.767696" stop-color="#174871"/>
<stop offset="1" stop-color="#0F2D4D"/>
</linearGradient>
<linearGradient id="paint1_linear_513_1162" x1="30.5" y1="21" x2="30.5" y2="84" gradientUnits="userSpaceOnUse">
<stop offset="0.144231" stop-color="#0F2D4D"/>
<stop offset="0.649038" stop-color="#A77693"/>
</linearGradient>
<linearGradient id="paint2_linear_513_1162" x1="22.7544" y1="9.5" x2="61.1316" y2="9.5" gradientUnits="userSpaceOnUse">
<stop stop-color="#0F2D4D"/>
<stop offset="0.433704" stop-color="#174871"/>
<stop offset="0.865685" stop-color="#2C5C88"/>
</linearGradient>
<linearGradient id="paint3_linear_513_1162" x1="18.7485" y1="1.64349" x2="-0.927914" y2="14.9375" gradientUnits="userSpaceOnUse">
<stop offset="0.153846" stop-color="#0F2D4D"/>
<stop offset="0.466346" stop-color="#A77693"/>
<stop offset="0.730769" stop-color="#DED1C6"/>
</linearGradient>
</defs>
</svg>
