<svg width="347" height="46" viewBox="0 0 347 46" fill="none" xmlns="http://www.w3.org/2000/svg">
<path d="M13.1364 23.1506L22.01 22.1662L35.1074 33.7889L26.0549 34.7932L13.1364 23.1506ZM19.0263 34.1241C15.8537 34.476 12.998 34.2012 10.4591 33.2997C7.94411 32.3955 5.90225 30.9679 4.33357 29.017C2.78875 27.0634 1.86152 24.6912 1.55191 21.9003C1.24229 19.1094 1.62702 16.5917 2.70609 14.347C3.80902 12.0997 5.48833 10.2593 7.74403 8.82584C10.0236 7.38974 12.7496 6.4957 15.9222 6.14374C19.1186 5.78914 21.9743 6.06393 24.4893 6.96813C27.0043 7.87233 29.0462 9.29989 30.6149 11.2508C32.1836 13.2018 33.1227 15.5727 33.4323 18.3635C33.7419 21.1544 33.3453 23.6735 32.2424 25.9208C31.1394 28.1681 29.4601 30.0085 27.2044 31.442C24.9487 32.8754 22.2227 33.7695 19.0263 34.1241ZM18.2919 27.5047C20.0333 27.3115 21.503 26.8466 22.701 26.11C23.8991 25.3734 24.7713 24.4195 25.3174 23.2481C25.8875 22.0741 26.0878 20.7238 25.9184 19.1971C25.7491 17.6705 25.2576 16.3969 24.4441 15.3764C23.6545 14.3532 22.5945 13.6136 21.2641 13.1575C19.9337 12.7014 18.3978 12.57 16.6565 12.7631C14.939 12.9537 13.4813 13.4172 12.2832 14.1538C11.0851 14.8904 10.201 15.8457 9.63102 17.0197C9.06099 18.1938 8.86066 19.5441 9.03003 21.0707C9.19939 22.5973 9.69082 23.8709 10.5043 24.8914C11.3178 25.912 12.3897 26.6503 13.7201 27.1064C15.0505 27.5625 16.5745 27.6952 18.2919 27.5047ZM44.4628 18.5887C44.5977 19.8052 44.9421 20.8415 45.4959 21.6977C46.0709 22.5274 46.8381 23.1304 47.7974 23.507C48.7806 23.8808 49.9401 23.9937 51.276 23.8455C52.6356 23.6946 53.7422 23.3304 54.5957 22.7528C55.4492 22.1751 56.0536 21.4199 56.4089 20.487C56.7616 19.5303 56.8704 18.4437 56.7355 17.2271L55.0882 2.37822L62.5305 1.55257L64.2175 16.7593C64.4901 19.2162 64.1558 21.4265 63.2146 23.3903C62.2946 25.3276 60.8777 26.9215 58.9639 28.1722C57.0475 29.3989 54.7296 30.1632 52.0103 30.4649C49.3148 30.7639 46.8858 30.5263 44.7233 29.752C42.5819 28.9512 40.8382 27.7079 39.4921 26.0221C38.1672 24.3097 37.3685 22.2251 37.0959 19.7681L35.4089 4.56143L42.8154 3.73975L44.4628 18.5887ZM91.5486 10.4859L91.876 15.876L72.1483 17.0739L71.821 11.6838L91.5486 10.4859ZM77.0513 14.0712L75.9473 24.9942L72.7238 21.7997L93.3498 20.5472L93.7164 26.5841L68.6705 28.105L69.9005 14.5054L67.034 1.15463L91.9002 -0.355349L92.2668 5.68153L71.8204 6.92312L74.6337 3.36205L77.0513 14.0712ZM137.951 4.87243L134.567 31.6595L127.531 30.7706L130.581 6.62652L132.13 7.00364L118.744 29.6606L111.244 28.713L103.869 3.50592L105.499 3.53039L102.458 27.603L95.4217 26.7141L98.8059 -0.0729404L110.235 1.37096L116.937 25.5859L114.08 25.2249L126.522 3.42853L137.951 4.87243ZM148.333 24.4724L155.87 25.4244C155.895 26.1776 156.159 26.8641 156.662 27.484C157.164 28.1038 157.872 28.6287 158.785 29.0585C159.725 29.4676 160.85 29.7548 162.16 29.9203C163.969 30.1489 165.427 30.1032 166.531 29.7831C167.639 29.4393 168.25 28.815 168.365 27.9101C168.452 27.2196 168.222 26.6463 167.675 26.1901C167.128 25.7339 166.019 25.3157 164.35 24.9355L159.408 23.8395C155.76 23.0398 153.186 21.8681 151.688 20.3241C150.193 18.7563 149.589 16.8295 149.878 14.5437C150.113 12.6864 150.847 11.1826 152.081 10.0322C153.339 8.88479 154.984 8.11297 157.018 7.71675C159.079 7.29972 161.418 7.25666 164.038 7.58755C166.609 7.91243 168.848 8.57028 170.755 9.5611C172.665 10.5281 174.119 11.752 175.117 13.2328C176.14 14.7166 176.587 16.3455 176.46 18.1196L168.959 17.172C168.945 16.5171 168.705 15.9303 168.238 15.4117C167.798 14.8723 167.153 14.428 166.302 14.0785C165.454 13.7053 164.411 13.4405 163.173 13.2841C161.506 13.0735 160.156 13.1328 159.123 13.4618C158.092 13.7671 157.523 14.3483 157.415 15.2055C157.336 15.8246 157.559 16.3607 158.082 16.8139C158.629 17.27 159.656 17.6658 161.162 18.0012L166.416 19.2093C168.933 19.7692 170.917 20.4431 172.365 21.2309C173.817 21.9949 174.823 22.9324 175.385 24.0435C175.946 25.1546 176.13 26.4721 175.938 27.996C175.7 29.8771 174.933 31.4493 173.636 32.7128C172.343 33.9524 170.634 34.8373 168.511 35.3673C166.391 35.8736 163.985 35.9567 161.295 35.6168C158.533 35.2679 156.14 34.5786 154.117 33.5489C152.121 32.4984 150.617 31.1956 149.604 29.6403C148.594 28.0613 148.17 26.3386 148.333 24.4724ZM193.181 39.6452C190.014 39.2451 187.302 38.3098 185.045 36.8392C182.811 35.3717 181.16 33.506 180.091 31.2422C179.046 28.9814 178.7 26.4581 179.052 23.6723C179.404 20.8864 180.367 18.5285 181.941 16.5986C183.539 14.6717 185.603 13.2753 188.131 12.4094C190.683 11.5465 193.543 11.3151 196.71 11.7152C199.9 12.1183 202.613 13.0536 204.846 14.5211C207.08 15.9887 208.731 17.8544 209.8 20.1182C210.869 22.382 211.227 24.9068 210.875 27.6926C210.523 30.4785 209.548 32.8349 207.95 34.7618C206.352 36.6886 204.288 38.085 201.76 38.951C199.231 39.8169 196.372 40.0483 193.181 39.6452ZM194.016 33.0377C195.754 33.2573 197.292 33.1492 198.629 32.7133C199.966 32.2775 201.037 31.5541 201.842 30.543C202.671 29.5349 203.182 28.269 203.375 26.7451C203.567 25.2212 203.387 23.868 202.835 22.6855C202.307 21.5059 201.449 20.5388 200.262 19.7841C199.076 19.0294 197.613 18.5423 195.875 18.3227C194.161 18.1061 192.635 18.2157 191.298 18.6516C189.961 19.0874 188.878 19.8093 188.049 20.8174C187.22 21.8255 186.709 23.0914 186.517 24.6153C186.324 26.1392 186.504 27.4924 187.056 28.6749C187.608 29.8575 188.478 30.8261 189.664 31.5808C190.851 32.3355 192.302 32.8211 194.016 33.0377ZM254.939 17.0517L253.225 43.9972L246.147 43.5468L247.693 19.26L249.262 19.5402L237.309 42.9845L229.764 42.5044L220.839 17.8038L222.467 17.727L220.926 41.942L213.848 41.4917L215.563 14.5462L227.06 15.2777L235.252 39.0299L232.378 38.847L243.443 16.3202L254.939 17.0517ZM275.016 43.0835C271.838 43.3789 268.987 43.0534 266.465 42.1068C263.966 41.1581 261.95 39.6944 260.416 37.7159C258.907 35.7352 258.022 33.3468 257.762 30.5509C257.502 27.7549 257.931 25.2444 259.05 23.0193C260.193 20.7919 261.905 18.9817 264.185 17.5886C266.49 16.1932 269.232 15.3478 272.41 15.0523C275.612 14.7546 278.462 15.0802 280.961 16.0289C283.46 16.9777 285.476 18.4414 287.009 20.4199C288.543 22.3984 289.44 24.7856 289.7 27.5816C289.96 30.3775 289.519 32.8892 288.376 35.1165C287.233 37.3438 285.521 39.1541 283.24 40.5472C280.96 41.9403 278.218 42.7857 275.016 43.0835ZM274.399 36.452C276.144 36.2899 277.622 35.8512 278.833 35.136C280.044 34.4208 280.933 33.4825 281.5 32.321C282.09 31.1574 282.315 29.8108 282.172 28.2814C282.03 26.752 281.562 25.4699 280.766 24.4351C279.995 23.398 278.948 22.6396 277.626 22.16C276.304 21.6803 274.771 21.5216 273.026 21.6837C271.306 21.8437 269.84 22.2813 268.629 22.9964C267.418 23.7116 266.517 24.6511 265.926 25.8147C265.336 26.9784 265.111 28.325 265.253 29.8544C265.396 31.3838 265.864 32.6659 266.66 33.7007C267.455 34.7356 268.513 35.4928 269.835 35.9725C271.158 36.4522 272.679 36.612 274.399 36.452ZM292.741 31.9629L300.304 31.2597C300.493 31.9894 300.899 32.6024 301.524 33.0987C302.148 33.595 302.953 33.9541 303.938 34.1759C304.944 34.3715 306.105 34.4083 307.419 34.2861C309.235 34.1172 310.648 33.7569 311.657 33.2051C312.664 32.6294 313.126 31.8875 313.041 30.9794C312.977 30.2864 312.628 29.7765 311.995 29.4497C311.362 29.1229 310.189 28.9547 308.477 28.9452L303.416 28.9458C299.68 28.9556 296.914 28.3691 295.117 27.1864C293.318 25.9798 292.311 24.2294 292.098 21.9353C291.925 20.0714 292.316 18.4442 293.271 17.0538C294.25 15.6611 295.69 14.5511 297.589 13.7237C299.511 12.8702 301.786 12.3213 304.414 12.0769C306.995 11.8369 309.324 11.994 311.4 12.5482C313.474 13.0785 315.159 13.9583 316.454 15.1877C317.773 16.4148 318.563 17.9082 318.823 19.6676L311.295 20.3675C311.14 19.7312 310.778 19.2104 310.21 18.8052C309.664 18.374 308.937 18.0799 308.031 17.9232C307.122 17.7425 306.047 17.7099 304.804 17.8255C303.131 17.981 301.826 18.3313 300.889 18.8764C299.949 19.3977 299.519 20.0884 299.599 20.9487C299.657 21.5701 299.99 22.0452 300.599 22.3743C301.232 22.7011 302.32 22.8651 303.863 22.8663L309.254 22.9074C311.833 22.9086 313.915 23.1369 315.5 23.5921C317.083 24.0234 318.268 24.7207 319.057 25.6838C319.845 26.647 320.311 27.8932 320.453 29.4226C320.628 31.3105 320.22 33.0116 319.228 34.5259C318.234 36.0164 316.758 37.2503 314.8 38.2278C312.84 39.1813 310.509 39.7836 307.809 40.0347C305.037 40.2924 302.552 40.1378 300.354 39.5708C298.178 38.9777 296.427 38.0317 295.101 36.7329C293.773 35.4102 292.986 33.8202 292.741 31.9629ZM330.309 27.0239C330.207 25.9247 330.427 24.928 330.971 24.0338C331.512 23.1158 332.458 22.2686 333.808 21.4923L336.487 19.9778C337.058 19.6354 337.482 19.2706 337.759 18.8833C338.034 18.4721 338.151 18.0394 338.109 17.5854C338.024 16.6773 337.564 16.009 336.729 15.5805C335.892 15.1281 334.732 14.9707 333.251 15.1085C331.721 15.2507 330.534 15.6985 329.688 16.4521C328.863 17.1795 328.421 18.1245 328.36 19.2871L321.371 19.937C321.288 16.9799 322.246 14.5769 324.244 12.728C326.265 10.877 329.092 9.78259 332.724 9.44489C336.38 9.10497 339.292 9.56944 341.459 10.8383C343.647 12.0811 344.863 14.0168 345.108 16.6454C345.228 17.9359 344.977 19.1282 344.356 20.2224C343.734 21.3166 342.726 22.2661 341.33 23.0707L338.417 24.7878C337.892 25.1017 337.501 25.4393 337.245 25.8006C336.99 26.1618 336.885 26.5933 336.932 27.0951L336.985 27.6687L330.605 28.2619C330.511 28.0296 330.443 27.8189 330.401 27.63C330.358 27.4171 330.327 27.2151 330.309 27.0239ZM334.593 37.3276C333.374 37.4409 332.35 37.1866 331.521 36.5647C330.716 35.9405 330.261 35.0669 330.157 33.9437C330.05 32.7967 330.335 31.8422 331.011 31.0803C331.712 30.3162 332.671 29.8775 333.89 29.7642C335.109 29.6509 336.121 29.9063 336.926 30.5304C337.731 31.1546 338.187 32.0402 338.294 33.1872C338.398 34.3104 338.112 35.2529 337.436 36.0148C336.759 36.7767 335.812 37.2143 334.593 37.3276Z" fill="#9112BC"/>
</svg>
