<svg width="284" height="84" viewBox="0 0 284 84" fill="none" xmlns="http://www.w3.org/2000/svg">
<path d="M0 38.867C0 38.3556 0.195957 37.8635 0.547583 37.4921L15.5476 21.6469C16.7908 20.3337 19 21.2135 19 23.0219V78C19 79.1046 18.1046 80 17 80H2C0.895431 80 0 79.1046 0 78V38.867Z" fill="url(#paint0_linear_541_3394)"/>
<path d="M21 23C21 21.8954 21.8954 21 23 21H38C39.1046 21 40 21.8954 40 23V59.0549C40 59.502 39.8502 59.9363 39.5744 60.2883L24.5744 79.4369C23.4023 80.9333 21 80.1044 21 78.2036V23Z" fill="url(#paint1_linear_541_3394)"/>
<path d="M21 2C21 0.895431 21.8954 0 23 0H51.52C52.0571 0 52.5716 0.215995 52.9477 0.599363L67.6637 15.5994C68.9051 16.8647 68.0087 19 66.2361 19H23C21.8954 19 21 18.1046 21 17V2Z" fill="url(#paint2_linear_541_3394)"/>
<path d="M74.024 19H78.776V46H74.024V19ZM83.1292 25.624H87.8092L89.0332 32.968V46H84.3532V32.284L83.1292 25.624ZM97.1332 25.12C99.0532 25.12 100.685 25.504 102.029 26.272C103.373 27.04 104.393 28.144 105.089 29.584C105.809 31 106.169 32.716 106.169 34.732V46H101.489V35.488C101.489 33.352 100.985 31.744 99.9772 30.664C98.9932 29.56 97.5412 29.008 95.6212 29.008C94.3012 29.008 93.1372 29.308 92.1292 29.908C91.1452 30.484 90.3772 31.3 89.8252 32.356C89.2972 33.412 89.0332 34.648 89.0332 36.064L87.3772 35.164C87.5932 33.052 88.1452 31.252 89.0332 29.764C89.9212 28.276 91.0612 27.136 92.4532 26.344C93.8452 25.528 95.4052 25.12 97.1332 25.12ZM122.123 46.504C119.651 46.504 117.479 46.06 115.607 45.172C113.759 44.26 112.307 43 111.251 41.392C110.219 39.784 109.703 37.924 109.703 35.812C109.703 33.676 110.219 31.816 111.251 30.232C112.307 28.624 113.759 27.376 115.607 26.488C117.479 25.576 119.651 25.12 122.123 25.12C124.595 25.12 126.755 25.576 128.603 26.488C130.475 27.376 131.927 28.624 132.959 30.232C134.015 31.816 134.543 33.676 134.543 35.812C134.543 37.924 134.015 39.784 132.959 41.392C131.927 43 130.475 44.26 128.603 45.172C126.755 46.06 124.595 46.504 122.123 46.504ZM122.123 42.832C123.707 42.832 125.063 42.544 126.191 41.968C127.343 41.392 128.231 40.588 128.855 39.556C129.479 38.5 129.791 37.252 129.791 35.812C129.791 34.372 129.479 33.136 128.855 32.104C128.231 31.048 127.343 30.232 126.191 29.656C125.063 29.08 123.707 28.792 122.123 28.792C120.563 28.792 119.207 29.08 118.055 29.656C116.903 30.232 116.015 31.048 115.391 32.104C114.767 33.136 114.455 34.372 114.455 35.812C114.455 37.252 114.767 38.5 115.391 39.556C116.015 40.588 116.903 41.392 118.055 41.968C119.207 42.544 120.563 42.832 122.123 42.832ZM148.633 43.912H146.833L155.185 25.624H160.189L150.253 46H144.997L135.061 25.624H140.209L148.633 43.912ZM180.945 46L180.153 38.44L181.089 35.812L180.153 33.22L180.945 25.624H185.769L184.689 35.812L185.769 46H180.945ZM182.385 35.812C181.929 37.948 181.173 39.82 180.117 41.428C179.061 43.036 177.753 44.284 176.193 45.172C174.657 46.06 172.941 46.504 171.045 46.504C169.053 46.504 167.289 46.06 165.753 45.172C164.217 44.26 163.017 43 162.153 41.392C161.289 39.784 160.857 37.924 160.857 35.812C160.857 33.676 161.289 31.816 162.153 30.232C163.017 28.624 164.217 27.376 165.753 26.488C167.289 25.576 169.053 25.12 171.045 25.12C172.941 25.12 174.657 25.564 176.193 26.452C177.753 27.34 179.061 28.588 180.117 30.196C181.197 31.78 181.953 33.652 182.385 35.812ZM165.609 35.812C165.609 37.18 165.885 38.392 166.437 39.448C167.013 40.48 167.793 41.296 168.777 41.896C169.761 42.472 170.889 42.76 172.161 42.76C173.457 42.76 174.657 42.472 175.761 41.896C176.865 41.296 177.837 40.48 178.677 39.448C179.541 38.392 180.225 37.18 180.729 35.812C180.225 34.444 179.541 33.244 178.677 32.212C177.837 31.156 176.865 30.34 175.761 29.764C174.657 29.164 173.457 28.864 172.161 28.864C170.889 28.864 169.761 29.164 168.777 29.764C167.793 30.34 167.013 31.156 166.437 32.212C165.885 33.244 165.609 34.444 165.609 35.812Z" fill="white"/>
<path d="M195.095 21.196H199.847V46H195.095V21.196ZM183.935 19H211.007V23.176H183.935V19ZM218.694 46.504C216.318 46.504 214.206 46.06 212.358 45.172C210.51 44.26 209.058 43 208.002 41.392C206.946 39.784 206.418 37.912 206.418 35.776C206.418 33.664 206.91 31.816 207.894 30.232C208.902 28.624 210.282 27.376 212.034 26.488C213.81 25.576 215.838 25.12 218.118 25.12C220.398 25.12 222.366 25.636 224.022 26.668C225.702 27.676 226.998 29.104 227.91 30.952C228.822 32.8 229.278 34.972 229.278 37.468H210.09V33.904H226.938L224.598 35.236C224.526 33.892 224.202 32.74 223.626 31.78C223.074 30.82 222.318 30.088 221.358 29.584C220.422 29.056 219.306 28.792 218.01 28.792C216.642 28.792 215.442 29.068 214.41 29.62C213.402 30.172 212.61 30.952 212.034 31.96C211.458 32.944 211.17 34.12 211.17 35.488C211.17 37 211.506 38.308 212.178 39.412C212.874 40.516 213.846 41.368 215.094 41.968C216.366 42.544 217.866 42.832 219.594 42.832C221.154 42.832 222.75 42.592 224.382 42.112C226.014 41.608 227.454 40.912 228.702 40.024V43.408C227.454 44.368 225.93 45.124 224.13 45.676C222.354 46.228 220.542 46.504 218.694 46.504ZM255.629 37.972C255.389 39.652 254.729 41.14 253.649 42.436C252.569 43.708 251.189 44.704 249.509 45.424C247.829 46.144 245.957 46.504 243.893 46.504C241.541 46.504 239.465 46.06 237.665 45.172C235.889 44.26 234.497 43 233.489 41.392C232.481 39.784 231.977 37.924 231.977 35.812C231.977 33.7 232.481 31.84 233.489 30.232C234.497 28.624 235.889 27.376 237.665 26.488C239.465 25.576 241.541 25.12 243.893 25.12C245.957 25.12 247.829 25.48 249.509 26.2C251.189 26.92 252.569 27.928 253.649 29.224C254.729 30.496 255.389 31.984 255.629 33.688H250.913C250.577 32.152 249.773 30.952 248.501 30.088C247.229 29.224 245.693 28.792 243.893 28.792C242.453 28.792 241.193 29.08 240.113 29.656C239.033 30.208 238.193 31.012 237.593 32.068C237.017 33.1 236.729 34.348 236.729 35.812C236.729 37.252 237.017 38.5 237.593 39.556C238.193 40.612 239.033 41.428 240.113 42.004C241.193 42.556 242.453 42.832 243.893 42.832C245.717 42.832 247.265 42.388 248.537 41.5C249.809 40.612 250.601 39.436 250.913 37.972H255.629ZM259.179 18.28H263.859V46H259.179V18.28ZM271.959 25.12C273.879 25.12 275.511 25.504 276.855 26.272C278.199 27.04 279.219 28.144 279.915 29.584C280.635 31 280.995 32.716 280.995 34.732V46H276.315V35.488C276.315 33.352 275.811 31.744 274.803 30.664C273.819 29.56 272.367 29.008 270.447 29.008C269.127 29.008 267.963 29.308 266.955 29.908C265.971 30.484 265.203 31.3 264.651 32.356C264.123 33.412 263.859 34.648 263.859 36.064L262.203 35.164C262.419 33.052 262.971 31.252 263.859 29.764C264.747 28.276 265.887 27.136 267.279 26.344C268.671 25.528 270.231 25.12 271.959 25.12Z" fill="url(#paint3_linear_541_3394)"/>
<path d="M104.902 58.5234H100.898V71.1797H99.707V58.5234H95.7031V57.4688H104.902V58.5234ZM106.23 65.8281H111.27C111.27 64.7604 111.126 63.9401 110.84 63.3672C110.684 63.0547 110.443 62.8008 110.117 62.6055C109.805 62.4102 109.447 62.3125 109.043 62.3125C108.236 62.3125 107.565 62.6576 107.031 63.3477C106.549 63.9596 106.283 64.7865 106.23 65.8281ZM106.25 66.7266C106.263 66.8698 106.276 67 106.289 67.1172C106.328 67.4297 106.4 67.7487 106.504 68.0742C106.634 68.4518 106.823 68.8164 107.07 69.168C107.318 69.5065 107.663 69.806 108.105 70.0664C108.262 70.1576 108.49 70.2487 108.789 70.3398C109.102 70.431 109.46 70.4766 109.863 70.4766C110.176 70.4766 110.553 70.431 110.996 70.3398C111.452 70.2487 111.849 70.1055 112.188 69.9102V70.75C111.732 71.0234 111.217 71.2122 110.645 71.3164C110.085 71.4206 109.512 71.4401 108.926 71.375C108.418 71.3229 107.923 71.1797 107.441 70.9453C106.96 70.7109 106.576 70.4245 106.289 70.0859C105.911 69.6693 105.599 69.1354 105.352 68.4844C105.104 67.8333 104.98 67.0716 104.98 66.1992C104.98 65.4831 105.072 64.8385 105.254 64.2656C105.436 63.6797 105.697 63.1784 106.035 62.7617C106.374 62.3451 106.79 62.0195 107.285 61.7852C107.793 61.5378 108.379 61.4141 109.043 61.4141C109.577 61.4141 110.085 61.5312 110.566 61.7656C111.061 61.987 111.439 62.2799 111.699 62.6445C112.207 63.3477 112.461 64.3763 112.461 65.7305V66.7266H106.25ZM121.895 64.4023H120.645C120.462 63.0091 119.74 62.3125 118.477 62.3125C117.669 62.3125 116.999 62.6576 116.465 63.3477C115.931 64.0378 115.664 64.9948 115.664 66.2188C115.664 66.5052 115.684 66.8047 115.723 67.1172C115.762 67.4297 115.833 67.7487 115.938 68.0742C116.068 68.4518 116.257 68.8164 116.504 69.168C116.751 69.5065 117.096 69.806 117.539 70.0664C117.695 70.1576 117.923 70.2487 118.223 70.3398C118.535 70.431 118.893 70.4766 119.297 70.4766C119.609 70.4766 119.987 70.431 120.43 70.3398C120.885 70.2487 121.283 70.1055 121.621 69.9102V70.75C121.165 71.0234 120.651 71.2122 120.078 71.3164C119.518 71.4206 118.945 71.4401 118.359 71.375C117.852 71.3229 117.357 71.1797 116.875 70.9453C116.393 70.7109 116.009 70.4245 115.723 70.0859C115.345 69.6693 115.033 69.1354 114.785 68.4844C114.538 67.8333 114.414 67.0716 114.414 66.1992C114.414 65.4831 114.505 64.8385 114.688 64.2656C114.87 63.6797 115.13 63.1784 115.469 62.7617C115.807 62.3451 116.23 62.0195 116.738 61.7852C117.259 61.5378 117.852 61.4141 118.516 61.4141C119.01 61.4141 119.453 61.4857 119.844 61.6289C120.234 61.7591 120.586 61.9674 120.898 62.2539C121.497 62.8008 121.829 63.5169 121.895 64.4023ZM131.465 71.1797H130.312V64.8906C130.312 64.1745 130.137 63.569 129.785 63.0742C129.486 62.6315 128.978 62.4102 128.262 62.4102C127.65 62.4102 127.109 62.6836 126.641 63.2305C126.185 63.7643 125.846 64.5326 125.625 65.5352C125.573 65.7826 125.534 66.0299 125.508 66.2773C125.495 66.5247 125.488 66.7656 125.488 67V71.1797H124.355V57.4688H125.488V63.7188C125.762 62.9766 126.139 62.4167 126.621 62.0391C127.142 61.6224 127.734 61.4141 128.398 61.4141C129.362 61.4141 130.098 61.6745 130.605 62.1953C131.178 62.7422 131.465 63.5885 131.465 64.7344V71.1797ZM141.465 71.1797H140.312V64.8906C140.312 64.1745 140.137 63.569 139.785 63.0742C139.486 62.6315 138.978 62.4102 138.262 62.4102C137.65 62.4102 137.109 62.6836 136.641 63.2305C136.185 63.7643 135.846 64.5326 135.625 65.5352C135.573 65.7826 135.534 66.0299 135.508 66.2773C135.495 66.5247 135.488 66.7656 135.488 67V71.1797H134.355V61.6484H135.488V63.7188C135.762 62.9766 136.139 62.4167 136.621 62.0391C137.142 61.6224 137.734 61.4141 138.398 61.4141C139.362 61.4141 140.098 61.6745 140.605 62.1953C141.178 62.7422 141.465 63.5885 141.465 64.7344V71.1797ZM150.723 66.4141C150.723 65.8542 150.658 65.3138 150.527 64.793C150.41 64.2591 150.221 63.8099 149.961 63.4453C149.714 63.0807 149.408 62.8008 149.043 62.6055C148.678 62.4102 148.301 62.3125 147.91 62.3125C147.52 62.3125 147.142 62.4102 146.777 62.6055C146.413 62.8008 146.107 63.0807 145.859 63.4453C145.599 63.8099 145.404 64.2591 145.273 64.793C145.156 65.3138 145.098 65.8542 145.098 66.4141C145.098 66.974 145.156 67.5208 145.273 68.0547C145.404 68.5755 145.599 69.0117 145.859 69.3633C146.107 69.7409 146.413 70.0273 146.777 70.2227C147.142 70.418 147.52 70.5156 147.91 70.5156C148.301 70.5156 148.678 70.418 149.043 70.2227C149.408 70.0273 149.714 69.7409 149.961 69.3633C150.221 69.0117 150.41 68.5755 150.527 68.0547C150.658 67.5208 150.723 66.974 150.723 66.4141ZM151.973 66.4141C151.973 67.0391 151.895 67.651 151.738 68.25C151.582 68.8359 151.361 69.3372 151.074 69.7539C150.749 70.2357 150.312 70.6328 149.766 70.9453C149.232 71.2448 148.613 71.3945 147.91 71.3945C147.207 71.3945 146.582 71.2448 146.035 70.9453C145.501 70.6328 145.072 70.2357 144.746 69.7539C144.46 69.3372 144.238 68.8359 144.082 68.25C143.926 67.651 143.848 67.0391 143.848 66.4141C143.848 65.7891 143.926 65.1836 144.082 64.5977C144.238 63.9987 144.46 63.4909 144.746 63.0742C145.072 62.5924 145.501 62.2018 146.035 61.9023C146.582 61.5898 147.207 61.4336 147.91 61.4336C148.613 61.4336 149.232 61.5898 149.766 61.9023C150.312 62.2018 150.749 62.5924 151.074 63.0742C151.361 63.4909 151.582 63.9987 151.738 64.5977C151.895 65.1836 151.973 65.7891 151.973 66.4141ZM155.625 71.1797H154.434V57.4688H155.625V71.1797ZM164.961 66.4141C164.961 65.8542 164.896 65.3138 164.766 64.793C164.648 64.2591 164.46 63.8099 164.199 63.4453C163.952 63.0807 163.646 62.8008 163.281 62.6055C162.917 62.4102 162.539 62.3125 162.148 62.3125C161.758 62.3125 161.38 62.4102 161.016 62.6055C160.651 62.8008 160.345 63.0807 160.098 63.4453C159.837 63.8099 159.642 64.2591 159.512 64.793C159.395 65.3138 159.336 65.8542 159.336 66.4141C159.336 66.974 159.395 67.5208 159.512 68.0547C159.642 68.5755 159.837 69.0117 160.098 69.3633C160.345 69.7409 160.651 70.0273 161.016 70.2227C161.38 70.418 161.758 70.5156 162.148 70.5156C162.539 70.5156 162.917 70.418 163.281 70.2227C163.646 70.0273 163.952 69.7409 164.199 69.3633C164.46 69.0117 164.648 68.5755 164.766 68.0547C164.896 67.5208 164.961 66.974 164.961 66.4141ZM166.211 66.4141C166.211 67.0391 166.133 67.651 165.977 68.25C165.82 68.8359 165.599 69.3372 165.312 69.7539C164.987 70.2357 164.551 70.6328 164.004 70.9453C163.47 71.2448 162.852 71.3945 162.148 71.3945C161.445 71.3945 160.82 71.2448 160.273 70.9453C159.74 70.6328 159.31 70.2357 158.984 69.7539C158.698 69.3372 158.477 68.8359 158.32 68.25C158.164 67.651 158.086 67.0391 158.086 66.4141C158.086 65.7891 158.164 65.1836 158.32 64.5977C158.477 63.9987 158.698 63.4909 158.984 63.0742C159.31 62.5924 159.74 62.2018 160.273 61.9023C160.82 61.5898 161.445 61.4336 162.148 61.4336C162.852 61.4336 163.47 61.5898 164.004 61.9023C164.551 62.2018 164.987 62.5924 165.312 63.0742C165.599 63.4909 165.82 63.9987 165.977 64.5977C166.133 65.1836 166.211 65.7891 166.211 66.4141ZM175.703 70.4375C175.703 71.8307 175.332 72.8724 174.59 73.5625C173.848 74.2656 172.793 74.6172 171.426 74.6172C170.996 74.6172 170.495 74.5716 169.922 74.4805C169.362 74.3893 168.978 74.2917 168.77 74.1875V73.0156C169.004 73.1589 169.401 73.2891 169.961 73.4062C170.534 73.5365 171.087 73.6016 171.621 73.6016C172.493 73.6016 173.184 73.3737 173.691 72.918C174.199 72.4753 174.479 71.8958 174.531 71.1797C174.557 70.8411 174.57 70.5938 174.57 70.4375H175.703ZM168.066 66.1211C168.066 65.4701 168.145 64.8841 168.301 64.3633C168.47 63.8294 168.698 63.3477 168.984 62.918C169.297 62.4622 169.694 62.0977 170.176 61.8242C170.671 61.5508 171.211 61.4141 171.797 61.4141C172.995 61.4141 173.919 62.0065 174.57 63.1914V61.6484H175.703V70.4961H174.57V68.9727C174.31 69.6367 173.926 70.138 173.418 70.4766C172.923 70.8151 172.35 70.9844 171.699 70.9844C171.217 70.9844 170.742 70.8802 170.273 70.6719C169.805 70.4505 169.414 70.125 169.102 69.6953C168.802 69.2786 168.555 68.7839 168.359 68.2109C168.164 67.638 168.066 66.9414 168.066 66.1211ZM174.551 66.2188C174.551 65.6849 174.479 65.1836 174.336 64.7148C174.193 64.2461 174.004 63.8294 173.77 63.4648C173.535 63.1263 173.255 62.8529 172.93 62.6445C172.604 62.4362 172.266 62.332 171.914 62.332C171.549 62.332 171.204 62.4362 170.879 62.6445C170.566 62.8529 170.286 63.1263 170.039 63.4648C169.805 63.8294 169.616 64.2461 169.473 64.7148C169.342 65.1836 169.277 65.6849 169.277 66.2188C169.277 66.7526 169.342 67.2539 169.473 67.7227C169.616 68.1784 169.805 68.5885 170.039 68.9531C170.286 69.3047 170.566 69.5846 170.879 69.793C171.204 69.9883 171.549 70.0859 171.914 70.0859C172.266 70.0859 172.604 69.9883 172.93 69.793C173.255 69.5846 173.535 69.3047 173.77 68.9531C174.004 68.5885 174.193 68.1784 174.336 67.7227C174.479 67.2539 174.551 66.7526 174.551 66.2188ZM184.375 61.6484H185.547L181.133 74.6172H179.98L181.289 70.75L177.852 61.6484H179.023L181.816 69.2461L184.375 61.6484ZM200.762 67.5469C200.762 68.862 200.352 69.832 199.531 70.457C198.724 71.082 197.624 71.3945 196.23 71.3945C195.697 71.3945 195.143 71.3294 194.57 71.1992C194.01 71.056 193.581 70.9388 193.281 70.8477V69.5977C193.464 69.6758 193.809 69.7995 194.316 69.9688C194.616 70.0599 194.941 70.151 195.293 70.2422C195.658 70.3203 196.022 70.3594 196.387 70.3594C196.777 70.3594 197.142 70.3138 197.48 70.2227C197.832 70.1315 198.151 69.9948 198.438 69.8125C198.737 69.6302 198.991 69.3698 199.199 69.0312C199.421 68.6797 199.531 68.2695 199.531 67.8008C199.531 67.0326 199.212 66.362 198.574 65.7891C198.066 65.3333 197.533 64.9688 196.973 64.6953C196.582 64.474 196.159 64.2396 195.703 63.9922C195.26 63.7448 194.844 63.4583 194.453 63.1328C194.062 62.8073 193.75 62.4492 193.516 62.0586C193.281 61.6549 193.164 61.1927 193.164 60.6719C193.164 59.474 193.522 58.6016 194.238 58.0547C194.967 57.4948 195.905 57.2148 197.051 57.2148C197.337 57.2148 197.63 57.2409 197.93 57.293C198.229 57.3451 198.516 57.4036 198.789 57.4688C199.284 57.5859 199.668 57.6966 199.941 57.8008V58.875C199.876 58.849 199.512 58.7318 198.848 58.5234C198.184 58.3021 197.526 58.1914 196.875 58.1914C196.185 58.1914 195.592 58.3932 195.098 58.7969C194.616 59.2005 194.375 59.7865 194.375 60.5547C194.375 60.8542 194.447 61.1276 194.59 61.375C194.746 61.6224 194.915 61.8503 195.098 62.0586C195.319 62.2539 195.56 62.4427 195.82 62.625C196.081 62.7943 196.341 62.957 196.602 63.1133C197.526 63.5951 198.21 63.9922 198.652 64.3047C199.095 64.6042 199.466 64.8971 199.766 65.1836C200.43 65.8607 200.762 66.6484 200.762 67.5469ZM209.395 66.4141C209.395 65.8542 209.329 65.3138 209.199 64.793C209.082 64.2591 208.893 63.8099 208.633 63.4453C208.385 63.0807 208.079 62.8008 207.715 62.6055C207.35 62.4102 206.973 62.3125 206.582 62.3125C206.191 62.3125 205.814 62.4102 205.449 62.6055C205.085 62.8008 204.779 63.0807 204.531 63.4453C204.271 63.8099 204.076 64.2591 203.945 64.793C203.828 65.3138 203.77 65.8542 203.77 66.4141C203.77 66.974 203.828 67.5208 203.945 68.0547C204.076 68.5755 204.271 69.0117 204.531 69.3633C204.779 69.7409 205.085 70.0273 205.449 70.2227C205.814 70.418 206.191 70.5156 206.582 70.5156C206.973 70.5156 207.35 70.418 207.715 70.2227C208.079 70.0273 208.385 69.7409 208.633 69.3633C208.893 69.0117 209.082 68.5755 209.199 68.0547C209.329 67.5208 209.395 66.974 209.395 66.4141ZM210.645 66.4141C210.645 67.0391 210.566 67.651 210.41 68.25C210.254 68.8359 210.033 69.3372 209.746 69.7539C209.421 70.2357 208.984 70.6328 208.438 70.9453C207.904 71.2448 207.285 71.3945 206.582 71.3945C205.879 71.3945 205.254 71.2448 204.707 70.9453C204.173 70.6328 203.743 70.2357 203.418 69.7539C203.132 69.3372 202.91 68.8359 202.754 68.25C202.598 67.651 202.52 67.0391 202.52 66.4141C202.52 65.7891 202.598 65.1836 202.754 64.5977C202.91 63.9987 203.132 63.4909 203.418 63.0742C203.743 62.5924 204.173 62.2018 204.707 61.9023C205.254 61.5898 205.879 61.4336 206.582 61.4336C207.285 61.4336 207.904 61.5898 208.438 61.9023C208.984 62.2018 209.421 62.5924 209.746 63.0742C210.033 63.4909 210.254 63.9987 210.41 64.5977C210.566 65.1836 210.645 65.7891 210.645 66.4141ZM214.297 71.1797H213.105V57.4688H214.297V71.1797ZM217.266 61.6484H218.418V67.9375C218.418 68.6146 218.594 69.2201 218.945 69.7539C219.258 70.1966 219.766 70.418 220.469 70.418C221.081 70.418 221.615 70.151 222.07 69.6172C222.539 69.0703 222.884 68.2956 223.105 67.293C223.158 67.0326 223.19 66.7852 223.203 66.5508C223.229 66.3034 223.242 66.0625 223.242 65.8281V61.6484H224.375V71.1797H223.242V69.1094C222.969 69.8385 222.591 70.3984 222.109 70.7891C221.589 71.2057 220.996 71.4141 220.332 71.4141C219.368 71.4141 218.633 71.1536 218.125 70.6328C217.552 70.0859 217.266 69.2396 217.266 68.0938V61.6484ZM231.66 62.5469H229.141V68.0742C229.141 68.3737 229.141 68.6602 229.141 68.9336C229.141 69.207 229.199 69.4805 229.316 69.7539C229.421 70.0013 229.59 70.1836 229.824 70.3008C230.059 70.418 230.339 70.4766 230.664 70.4766C231.016 70.4766 231.335 70.4505 231.621 70.3984V71.3359C231.335 71.375 230.944 71.3945 230.449 71.3945C229.577 71.3945 228.945 71.2122 228.555 70.8477C228.177 70.4701 227.988 69.8516 227.988 68.9922V62.5469H226.465V61.6484H227.988V59.3047L229.141 58.7188V61.6484H231.66V62.5469ZM235.254 59.1094H233.789V57.4688H235.254V59.1094ZM235.137 71.1797H233.945V61.6484H235.137V71.1797ZM244.473 66.4141C244.473 65.8542 244.408 65.3138 244.277 64.793C244.16 64.2591 243.971 63.8099 243.711 63.4453C243.464 63.0807 243.158 62.8008 242.793 62.6055C242.428 62.4102 242.051 62.3125 241.66 62.3125C241.27 62.3125 240.892 62.4102 240.527 62.6055C240.163 62.8008 239.857 63.0807 239.609 63.4453C239.349 63.8099 239.154 64.2591 239.023 64.793C238.906 65.3138 238.848 65.8542 238.848 66.4141C238.848 66.974 238.906 67.5208 239.023 68.0547C239.154 68.5755 239.349 69.0117 239.609 69.3633C239.857 69.7409 240.163 70.0273 240.527 70.2227C240.892 70.418 241.27 70.5156 241.66 70.5156C242.051 70.5156 242.428 70.418 242.793 70.2227C243.158 70.0273 243.464 69.7409 243.711 69.3633C243.971 69.0117 244.16 68.5755 244.277 68.0547C244.408 67.5208 244.473 66.974 244.473 66.4141ZM245.723 66.4141C245.723 67.0391 245.645 67.651 245.488 68.25C245.332 68.8359 245.111 69.3372 244.824 69.7539C244.499 70.2357 244.062 70.6328 243.516 70.9453C242.982 71.2448 242.363 71.3945 241.66 71.3945C240.957 71.3945 240.332 71.2448 239.785 70.9453C239.251 70.6328 238.822 70.2357 238.496 69.7539C238.21 69.3372 237.988 68.8359 237.832 68.25C237.676 67.651 237.598 67.0391 237.598 66.4141C237.598 65.7891 237.676 65.1836 237.832 64.5977C237.988 63.9987 238.21 63.4909 238.496 63.0742C238.822 62.5924 239.251 62.2018 239.785 61.9023C240.332 61.5898 240.957 61.4336 241.66 61.4336C242.363 61.4336 242.982 61.5898 243.516 61.9023C244.062 62.2018 244.499 62.5924 244.824 63.0742C245.111 63.4909 245.332 63.9987 245.488 64.5977C245.645 65.1836 245.723 65.7891 245.723 66.4141ZM255.215 71.1797H254.062V64.8906C254.062 64.1745 253.887 63.569 253.535 63.0742C253.236 62.6315 252.728 62.4102 252.012 62.4102C251.4 62.4102 250.859 62.6836 250.391 63.2305C249.935 63.7643 249.596 64.5326 249.375 65.5352C249.323 65.7826 249.284 66.0299 249.258 66.2773C249.245 66.5247 249.238 66.7656 249.238 67V71.1797H248.105V61.6484H249.238V63.7188C249.512 62.9766 249.889 62.4167 250.371 62.0391C250.892 61.6224 251.484 61.4141 252.148 61.4141C253.112 61.4141 253.848 61.6745 254.355 62.1953C254.928 62.7422 255.215 63.5885 255.215 64.7344V71.1797ZM263.711 68.7578C263.711 69.1354 263.639 69.4935 263.496 69.832C263.366 70.1706 263.184 70.444 262.949 70.6523C262.65 70.8867 262.246 71.069 261.738 71.1992C261.243 71.3294 260.69 71.3945 260.078 71.3945C259.362 71.3945 258.522 71.2383 257.559 70.9258V69.8125C257.663 69.8646 258.001 69.9883 258.574 70.1836C259.147 70.3789 259.648 70.4766 260.078 70.4766C260.807 70.4766 261.361 70.3724 261.738 70.1641C262.285 69.8255 262.559 69.3893 262.559 68.8555C262.559 68.4909 262.461 68.1849 262.266 67.9375C262.07 67.6901 261.823 67.4818 261.523 67.3125C261.211 67.1562 260.82 66.987 260.352 66.8047C259.883 66.6094 259.434 66.401 259.004 66.1797C258.652 65.9974 258.327 65.7305 258.027 65.3789C257.741 65.0143 257.598 64.5391 257.598 63.9531C257.598 63.1589 257.884 62.5404 258.457 62.0977C259.043 61.6419 259.818 61.4141 260.781 61.4141C261.589 61.4141 262.383 61.5443 263.164 61.8047V62.8789C263.073 62.8398 262.767 62.7357 262.246 62.5664C261.738 62.3841 261.191 62.293 260.605 62.293C260.137 62.293 259.701 62.4232 259.297 62.6836C258.906 62.944 258.711 63.2956 258.711 63.7383C258.711 64.0638 258.77 64.3372 258.887 64.5586C259.017 64.7669 259.225 64.9622 259.512 65.1445C259.772 65.3268 260.182 65.5286 260.742 65.75C261.315 65.9583 261.79 66.1667 262.168 66.375C262.585 66.5833 262.943 66.8893 263.242 67.293C263.555 67.6836 263.711 68.1719 263.711 68.7578Z" fill="white"/>
<path d="M4.75077 1.27414C9.29384 -1.34875 15.1029 0.207696 17.7259 4.75074C20.3488 9.29378 18.7922 15.1028 14.2493 17.7258C9.70619 20.3488 3.89715 18.7923 1.27418 14.2492C-1.34877 9.70614 0.207686 3.8971 4.75077 1.27414Z" fill="url(#paint4_linear_541_3394)"/>
<defs>
<linearGradient id="paint0_linear_541_3394" x1="9.5" y1="28.7551" x2="9.5" y2="75.7823" gradientUnits="userSpaceOnUse">
<stop offset="0.123598" stop-color="#DED1C6"/>
<stop offset="0.485197" stop-color="#A77693"/>
<stop offset="0.767696" stop-color="#174871"/>
<stop offset="1" stop-color="#0F2D4D"/>
</linearGradient>
<linearGradient id="paint1_linear_541_3394" x1="30.5" y1="21" x2="30.5" y2="84" gradientUnits="userSpaceOnUse">
<stop offset="0.144231" stop-color="#0F2D4D"/>
<stop offset="0.649038" stop-color="#A77693"/>
</linearGradient>
<linearGradient id="paint2_linear_541_3394" x1="22.7544" y1="9.5" x2="61.1316" y2="9.5" gradientUnits="userSpaceOnUse">
<stop stop-color="#0F2D4D"/>
<stop offset="0.433704" stop-color="#174871"/>
<stop offset="0.865685" stop-color="#2C5C88"/>
</linearGradient>
<linearGradient id="paint3_linear_541_3394" x1="71" y1="32.5" x2="284" y2="32.5" gradientUnits="userSpaceOnUse">
<stop stop-color="#0F2D4D"/>
<stop offset="0.5" stop-color="#174871"/>
<stop offset="0.75" stop-color="#A77693"/>
<stop offset="1" stop-color="#DED1C6"/>
</linearGradient>
<linearGradient id="paint4_linear_541_3394" x1="18.7485" y1="1.64349" x2="-0.927914" y2="14.9375" gradientUnits="userSpaceOnUse">
<stop offset="0.153846" stop-color="#0F2D4D"/>
<stop offset="0.466346" stop-color="#A77693"/>
<stop offset="0.730769" stop-color="#DED1C6"/>
</linearGradient>
</defs>
</svg>
