<svg width="298" height="84" viewBox="0 0 298 84" fill="none" xmlns="http://www.w3.org/2000/svg">
<path d="M0 38.867C0 38.3556 0.195957 37.8635 0.547583 37.4921L15.5476 21.6469C16.7908 20.3337 19 21.2135 19 23.0219V78C19 79.1046 18.1046 80 17 80H2C0.895431 80 0 79.1046 0 78V38.867Z" fill="url(#paint0_linear_75_3)"/>
<path d="M21 23C21 21.8954 21.8954 21 23 21H38C39.1046 21 40 21.8954 40 23V59.0549C40 59.502 39.8502 59.9363 39.5744 60.2882L24.5744 79.4369C23.4023 80.9333 21 80.1044 21 78.2036V23Z" fill="url(#paint1_linear_75_3)"/>
<path d="M21 2C21 0.895431 21.8954 0 23 0H51.52C52.0571 0 52.5716 0.215995 52.9477 0.599363L67.6637 15.5994C68.9051 16.8647 68.0087 19 66.2361 19H23C21.8954 19 21 18.1046 21 17V2Z" fill="url(#paint2_linear_75_3)"/>
<path d="M4.75077 1.27415C9.29384 -1.34875 15.1029 0.207696 17.7259 4.75074C20.3488 9.29378 18.7922 15.1028 14.2493 17.7258C9.70619 20.3488 3.89715 18.7923 1.27418 14.2492C-1.34877 9.70614 0.207686 3.8971 4.75077 1.27415Z" fill="url(#paint3_linear_75_3)"/>
<path d="M97.188 18H101.412V42H97.188V18ZM105.282 23.888H109.442L110.53 30.416V42H106.37V29.808L105.282 23.888ZM117.73 23.44C119.436 23.44 120.887 23.7813 122.082 24.464C123.276 25.1467 124.183 26.128 124.802 27.408C125.442 28.6667 125.762 30.192 125.762 31.984V42H121.602V32.656C121.602 30.7573 121.154 29.328 120.258 28.368C119.383 27.3867 118.092 26.896 116.386 26.896C115.212 26.896 114.178 27.1627 113.282 27.696C112.407 28.208 111.724 28.9333 111.234 29.872C110.764 30.8107 110.53 31.9093 110.53 33.168L109.058 32.368C109.25 30.4907 109.74 28.8907 110.53 27.568C111.319 26.2453 112.332 25.232 113.57 24.528C114.807 23.8027 116.194 23.44 117.73 23.44ZM139.943 42.448C137.745 42.448 135.815 42.0533 134.151 41.264C132.508 40.4533 131.217 39.3333 130.279 37.904C129.361 36.4747 128.903 34.8213 128.903 32.944C128.903 31.0453 129.361 29.392 130.279 27.984C131.217 26.5547 132.508 25.4453 134.151 24.656C135.815 23.8453 137.745 23.44 139.943 23.44C142.14 23.44 144.06 23.8453 145.703 24.656C147.367 25.4453 148.657 26.5547 149.575 27.984C150.513 29.392 150.983 31.0453 150.983 32.944C150.983 34.8213 150.513 36.4747 149.575 37.904C148.657 39.3333 147.367 40.4533 145.703 41.264C144.06 42.0533 142.14 42.448 139.943 42.448ZM139.943 39.184C141.351 39.184 142.556 38.928 143.559 38.416C144.583 37.904 145.372 37.1893 145.927 36.272C146.481 35.3333 146.759 34.224 146.759 32.944C146.759 31.664 146.481 30.5653 145.927 29.648C145.372 28.7093 144.583 27.984 143.559 27.472C142.556 26.96 141.351 26.704 139.943 26.704C138.556 26.704 137.351 26.96 136.327 27.472C135.303 27.984 134.513 28.7093 133.959 29.648C133.404 30.5653 133.127 31.664 133.127 32.944C133.127 34.224 133.404 35.3333 133.959 36.272C134.513 37.1893 135.303 37.904 136.327 38.416C137.351 38.928 138.556 39.184 139.943 39.184ZM163.508 40.144H161.908L169.332 23.888H173.78L164.948 42H160.276L151.444 23.888H156.02L163.508 40.144ZM192.229 42L191.525 35.28L192.357 32.944L191.525 30.64L192.229 23.888H196.517L195.557 32.944L196.517 42H192.229ZM193.509 32.944C193.104 34.8427 192.432 36.5067 191.493 37.936C190.554 39.3653 189.392 40.4747 188.005 41.264C186.64 42.0533 185.114 42.448 183.429 42.448C181.658 42.448 180.09 42.0533 178.725 41.264C177.36 40.4533 176.293 39.3333 175.525 37.904C174.757 36.4747 174.373 34.8213 174.373 32.944C174.373 31.0453 174.757 29.392 175.525 27.984C176.293 26.5547 177.36 25.4453 178.725 24.656C180.09 23.8453 181.658 23.44 183.429 23.44C185.114 23.44 186.64 23.8347 188.005 24.624C189.392 25.4133 190.554 26.5227 191.493 27.952C192.453 29.36 193.125 31.024 193.509 32.944ZM178.597 32.944C178.597 34.16 178.842 35.2373 179.333 36.176C179.845 37.0933 180.538 37.8187 181.413 38.352C182.288 38.864 183.29 39.12 184.421 39.12C185.573 39.12 186.64 38.864 187.621 38.352C188.602 37.8187 189.466 37.0933 190.213 36.176C190.981 35.2373 191.589 34.16 192.037 32.944C191.589 31.728 190.981 30.6613 190.213 29.744C189.466 28.8053 188.602 28.08 187.621 27.568C186.64 27.0347 185.573 26.768 184.421 26.768C183.29 26.768 182.288 27.0347 181.413 27.568C180.538 28.08 179.845 28.8053 179.333 29.744C178.842 30.6613 178.597 31.728 178.597 32.944Z" fill="black"/>
<path d="M204.807 19.952H209.031V42H204.807V19.952ZM194.887 18H218.951V21.712H194.887V18ZM225.784 42.448C223.672 42.448 221.794 42.0533 220.152 41.264C218.509 40.4533 217.218 39.3333 216.28 37.904C215.341 36.4747 214.872 34.8107 214.872 32.912C214.872 31.0347 215.309 29.392 216.184 27.984C217.08 26.5547 218.306 25.4453 219.864 24.656C221.442 23.8453 223.245 23.44 225.272 23.44C227.298 23.44 229.048 23.8987 230.52 24.816C232.013 25.712 233.165 26.9813 233.976 28.624C234.786 30.2667 235.192 32.1973 235.192 34.416H218.136V31.248H233.112L231.032 32.432C230.968 31.2373 230.68 30.2133 230.168 29.36C229.677 28.5067 229.005 27.856 228.152 27.408C227.32 26.9387 226.328 26.704 225.176 26.704C223.96 26.704 222.893 26.9493 221.976 27.44C221.08 27.9307 220.376 28.624 219.864 29.52C219.352 30.3947 219.096 31.44 219.096 32.656C219.096 34 219.394 35.1627 219.992 36.144C220.61 37.1253 221.474 37.8827 222.584 38.416C223.714 38.928 225.048 39.184 226.584 39.184C227.97 39.184 229.389 38.9707 230.84 38.544C232.29 38.096 233.57 37.4773 234.68 36.688V39.696C233.57 40.5493 232.216 41.2213 230.616 41.712C229.037 42.2027 227.426 42.448 225.784 42.448ZM258.614 34.864C258.401 36.3573 257.814 37.68 256.854 38.832C255.894 39.9627 254.668 40.848 253.174 41.488C251.681 42.128 250.017 42.448 248.182 42.448C246.092 42.448 244.246 42.0533 242.646 41.264C241.068 40.4533 239.83 39.3333 238.934 37.904C238.038 36.4747 237.59 34.8213 237.59 32.944C237.59 31.0667 238.038 29.4133 238.934 27.984C239.83 26.5547 241.068 25.4453 242.646 24.656C244.246 23.8453 246.092 23.44 248.182 23.44C250.017 23.44 251.681 23.76 253.174 24.4C254.668 25.04 255.894 25.936 256.854 27.088C257.814 28.2187 258.401 29.5413 258.614 31.056H254.422C254.124 29.6907 253.409 28.624 252.278 27.856C251.148 27.088 249.782 26.704 248.182 26.704C246.902 26.704 245.782 26.96 244.822 27.472C243.862 27.9627 243.116 28.6773 242.582 29.616C242.07 30.5333 241.814 31.6427 241.814 32.944C241.814 34.224 242.07 35.3333 242.582 36.272C243.116 37.2107 243.862 37.936 244.822 38.448C245.782 38.9387 246.902 39.184 248.182 39.184C249.804 39.184 251.18 38.7893 252.31 38C253.441 37.2107 254.145 36.1653 254.422 34.864H258.614ZM261.771 17.36H265.931V42H261.771V17.36ZM273.131 23.44C274.837 23.44 276.288 23.7813 277.483 24.464C278.677 25.1467 279.584 26.128 280.203 27.408C280.843 28.6667 281.163 30.192 281.163 31.984V42H277.003V32.656C277.003 30.7573 276.555 29.328 275.659 28.368C274.784 27.3867 273.493 26.896 271.787 26.896C270.613 26.896 269.579 27.1627 268.683 27.696C267.808 28.208 267.125 28.9333 266.635 29.872C266.165 30.8107 265.931 31.9093 265.931 33.168L264.459 32.368C264.651 30.4907 265.141 28.8907 265.931 27.568C266.72 26.2453 267.733 25.232 268.97 24.528C270.208 23.8027 271.595 23.44 273.131 23.44Z" fill="url(#paint4_linear_75_3)"/>
<path d="M98.8828 54.8281H94.0781V70.0156H92.6484V54.8281H87.8438V53.5625H98.8828V54.8281ZM100.477 63.5938H106.523C106.523 62.3125 106.352 61.3281 106.008 60.6406C105.82 60.2656 105.531 59.9609 105.141 59.7266C104.766 59.4922 104.336 59.375 103.852 59.375C102.883 59.375 102.078 59.7891 101.438 60.6172C100.859 61.3516 100.539 62.3438 100.477 63.5938ZM100.5 64.6719C100.516 64.8438 100.531 65 100.547 65.1406C100.594 65.5156 100.68 65.8984 100.805 66.2891C100.961 66.7422 101.188 67.1797 101.484 67.6016C101.781 68.0078 102.195 68.3672 102.727 68.6797C102.914 68.7891 103.188 68.8984 103.547 69.0078C103.922 69.1172 104.352 69.1719 104.836 69.1719C105.211 69.1719 105.664 69.1172 106.195 69.0078C106.742 68.8984 107.219 68.7266 107.625 68.4922V69.5C107.078 69.8281 106.461 70.0547 105.773 70.1797C105.102 70.3047 104.414 70.3281 103.711 70.25C103.102 70.1875 102.508 70.0156 101.93 69.7344C101.352 69.4531 100.891 69.1094 100.547 68.7031C100.094 68.2031 99.7188 67.5625 99.4219 66.7812C99.125 66 98.9766 65.0859 98.9766 64.0391C98.9766 63.1797 99.0859 62.4062 99.3047 61.7188C99.5234 61.0156 99.8359 60.4141 100.242 59.9141C100.648 59.4141 101.148 59.0234 101.742 58.7422C102.352 58.4453 103.055 58.2969 103.852 58.2969C104.492 58.2969 105.102 58.4375 105.68 58.7188C106.273 58.9844 106.727 59.3359 107.039 59.7734C107.648 60.6172 107.953 61.8516 107.953 63.4766V64.6719H100.5ZM119.273 61.8828H117.773C117.555 60.2109 116.688 59.375 115.172 59.375C114.203 59.375 113.398 59.7891 112.758 60.6172C112.117 61.4453 111.797 62.5938 111.797 64.0625C111.797 64.4062 111.82 64.7656 111.867 65.1406C111.914 65.5156 112 65.8984 112.125 66.2891C112.281 66.7422 112.508 67.1797 112.805 67.6016C113.102 68.0078 113.516 68.3672 114.047 68.6797C114.234 68.7891 114.508 68.8984 114.867 69.0078C115.242 69.1172 115.672 69.1719 116.156 69.1719C116.531 69.1719 116.984 69.1172 117.516 69.0078C118.062 68.8984 118.539 68.7266 118.945 68.4922V69.5C118.398 69.8281 117.781 70.0547 117.094 70.1797C116.422 70.3047 115.734 70.3281 115.031 70.25C114.422 70.1875 113.828 70.0156 113.25 69.7344C112.672 69.4531 112.211 69.1094 111.867 68.7031C111.414 68.2031 111.039 67.5625 110.742 66.7812C110.445 66 110.297 65.0859 110.297 64.0391C110.297 63.1797 110.406 62.4062 110.625 61.7188C110.844 61.0156 111.156 60.4141 111.562 59.9141C111.969 59.4141 112.477 59.0234 113.086 58.7422C113.711 58.4453 114.422 58.2969 115.219 58.2969C115.812 58.2969 116.344 58.3828 116.812 58.5547C117.281 58.7109 117.703 58.9609 118.078 59.3047C118.797 59.9609 119.195 60.8203 119.273 61.8828ZM130.758 70.0156H129.375V62.4688C129.375 61.6094 129.164 60.8828 128.742 60.2891C128.383 59.7578 127.773 59.4922 126.914 59.4922C126.18 59.4922 125.531 59.8203 124.969 60.4766C124.422 61.1172 124.016 62.0391 123.75 63.2422C123.688 63.5391 123.641 63.8359 123.609 64.1328C123.594 64.4297 123.586 64.7188 123.586 65V70.0156H122.227V53.5625H123.586V61.0625C123.914 60.1719 124.367 59.5 124.945 59.0469C125.57 58.5469 126.281 58.2969 127.078 58.2969C128.234 58.2969 129.117 58.6094 129.727 59.2344C130.414 59.8906 130.758 60.9062 130.758 62.2812V70.0156ZM142.758 70.0156H141.375V62.4688C141.375 61.6094 141.164 60.8828 140.742 60.2891C140.383 59.7578 139.773 59.4922 138.914 59.4922C138.18 59.4922 137.531 59.8203 136.969 60.4766C136.422 61.1172 136.016 62.0391 135.75 63.2422C135.688 63.5391 135.641 63.8359 135.609 64.1328C135.594 64.4297 135.586 64.7188 135.586 65V70.0156H134.227V58.5781H135.586V61.0625C135.914 60.1719 136.367 59.5 136.945 59.0469C137.57 58.5469 138.281 58.2969 139.078 58.2969C140.234 58.2969 141.117 58.6094 141.727 59.2344C142.414 59.8906 142.758 60.9062 142.758 62.2812V70.0156ZM153.867 64.2969C153.867 63.625 153.789 62.9766 153.633 62.3516C153.492 61.7109 153.266 61.1719 152.953 60.7344C152.656 60.2969 152.289 59.9609 151.852 59.7266C151.414 59.4922 150.961 59.375 150.492 59.375C150.023 59.375 149.57 59.4922 149.133 59.7266C148.695 59.9609 148.328 60.2969 148.031 60.7344C147.719 61.1719 147.484 61.7109 147.328 62.3516C147.188 62.9766 147.117 63.625 147.117 64.2969C147.117 64.9688 147.188 65.625 147.328 66.2656C147.484 66.8906 147.719 67.4141 148.031 67.8359C148.328 68.2891 148.695 68.6328 149.133 68.8672C149.57 69.1016 150.023 69.2188 150.492 69.2188C150.961 69.2188 151.414 69.1016 151.852 68.8672C152.289 68.6328 152.656 68.2891 152.953 67.8359C153.266 67.4141 153.492 66.8906 153.633 66.2656C153.789 65.625 153.867 64.9688 153.867 64.2969ZM155.367 64.2969C155.367 65.0469 155.273 65.7812 155.086 66.5C154.898 67.2031 154.633 67.8047 154.289 68.3047C153.898 68.8828 153.375 69.3594 152.719 69.7344C152.078 70.0938 151.336 70.2734 150.492 70.2734C149.648 70.2734 148.898 70.0938 148.242 69.7344C147.602 69.3594 147.086 68.8828 146.695 68.3047C146.352 67.8047 146.086 67.2031 145.898 66.5C145.711 65.7812 145.617 65.0469 145.617 64.2969C145.617 63.5469 145.711 62.8203 145.898 62.1172C146.086 61.3984 146.352 60.7891 146.695 60.2891C147.086 59.7109 147.602 59.2422 148.242 58.8828C148.898 58.5078 149.648 58.3203 150.492 58.3203C151.336 58.3203 152.078 58.5078 152.719 58.8828C153.375 59.2422 153.898 59.7109 154.289 60.2891C154.633 60.7891 154.898 61.3984 155.086 62.1172C155.273 62.8203 155.367 63.5469 155.367 64.2969ZM159.75 70.0156H158.32V53.5625H159.75V70.0156ZM170.953 64.2969C170.953 63.625 170.875 62.9766 170.719 62.3516C170.578 61.7109 170.352 61.1719 170.039 60.7344C169.742 60.2969 169.375 59.9609 168.938 59.7266C168.5 59.4922 168.047 59.375 167.578 59.375C167.109 59.375 166.656 59.4922 166.219 59.7266C165.781 59.9609 165.414 60.2969 165.117 60.7344C164.805 61.1719 164.57 61.7109 164.414 62.3516C164.273 62.9766 164.203 63.625 164.203 64.2969C164.203 64.9688 164.273 65.625 164.414 66.2656C164.57 66.8906 164.805 67.4141 165.117 67.8359C165.414 68.2891 165.781 68.6328 166.219 68.8672C166.656 69.1016 167.109 69.2188 167.578 69.2188C168.047 69.2188 168.5 69.1016 168.938 68.8672C169.375 68.6328 169.742 68.2891 170.039 67.8359C170.352 67.4141 170.578 66.8906 170.719 66.2656C170.875 65.625 170.953 64.9688 170.953 64.2969ZM172.453 64.2969C172.453 65.0469 172.359 65.7812 172.172 66.5C171.984 67.2031 171.719 67.8047 171.375 68.3047C170.984 68.8828 170.461 69.3594 169.805 69.7344C169.164 70.0938 168.422 70.2734 167.578 70.2734C166.734 70.2734 165.984 70.0938 165.328 69.7344C164.688 69.3594 164.172 68.8828 163.781 68.3047C163.438 67.8047 163.172 67.2031 162.984 66.5C162.797 65.7812 162.703 65.0469 162.703 64.2969C162.703 63.5469 162.797 62.8203 162.984 62.1172C163.172 61.3984 163.438 60.7891 163.781 60.2891C164.172 59.7109 164.688 59.2422 165.328 58.8828C165.984 58.5078 166.734 58.3203 167.578 58.3203C168.422 58.3203 169.164 58.5078 169.805 58.8828C170.461 59.2422 170.984 59.7109 171.375 60.2891C171.719 60.7891 171.984 61.3984 172.172 62.1172C172.359 62.8203 172.453 63.5469 172.453 64.2969ZM183.844 69.125C183.844 70.7969 183.398 72.0469 182.508 72.875C181.617 73.7188 180.352 74.1406 178.711 74.1406C178.195 74.1406 177.594 74.0859 176.906 73.9766C176.234 73.8672 175.773 73.75 175.523 73.625V72.2188C175.805 72.3906 176.281 72.5469 176.953 72.6875C177.641 72.8438 178.305 72.9219 178.945 72.9219C179.992 72.9219 180.82 72.6484 181.43 72.1016C182.039 71.5703 182.375 70.875 182.438 70.0156C182.469 69.6094 182.484 69.3125 182.484 69.125H183.844ZM174.68 63.9453C174.68 63.1641 174.773 62.4609 174.961 61.8359C175.164 61.1953 175.438 60.6172 175.781 60.1016C176.156 59.5547 176.633 59.1172 177.211 58.7891C177.805 58.4609 178.453 58.2969 179.156 58.2969C180.594 58.2969 181.703 59.0078 182.484 60.4297V58.5781H183.844V69.1953H182.484V67.3672C182.172 68.1641 181.711 68.7656 181.102 69.1719C180.508 69.5781 179.82 69.7812 179.039 69.7812C178.461 69.7812 177.891 69.6562 177.328 69.4062C176.766 69.1406 176.297 68.75 175.922 68.2344C175.562 67.7344 175.266 67.1406 175.031 66.4531C174.797 65.7656 174.68 64.9297 174.68 63.9453ZM182.461 64.0625C182.461 63.4219 182.375 62.8203 182.203 62.2578C182.031 61.6953 181.805 61.1953 181.523 60.7578C181.242 60.3516 180.906 60.0234 180.516 59.7734C180.125 59.5234 179.719 59.3984 179.297 59.3984C178.859 59.3984 178.445 59.5234 178.055 59.7734C177.68 60.0234 177.344 60.3516 177.047 60.7578C176.766 61.1953 176.539 61.6953 176.367 62.2578C176.211 62.8203 176.133 63.4219 176.133 64.0625C176.133 64.7031 176.211 65.3047 176.367 65.8672C176.539 66.4141 176.766 66.9062 177.047 67.3438C177.344 67.7656 177.68 68.1016 178.055 68.3516C178.445 68.5859 178.859 68.7031 179.297 68.7031C179.719 68.7031 180.125 68.5859 180.516 68.3516C180.906 68.1016 181.242 67.7656 181.523 67.3438C181.805 66.9062 182.031 66.4141 182.203 65.8672C182.375 65.3047 182.461 64.7031 182.461 64.0625ZM194.25 58.5781H195.656L190.359 74.1406H188.977L190.547 69.5L186.422 58.5781H187.828L191.18 67.6953L194.25 58.5781ZM213.914 65.6562C213.914 67.2344 213.422 68.3984 212.438 69.1484C211.469 69.8984 210.148 70.2734 208.477 70.2734C207.836 70.2734 207.172 70.1953 206.484 70.0391C205.812 69.8672 205.297 69.7266 204.938 69.6172V68.1172C205.156 68.2109 205.57 68.3594 206.18 68.5625C206.539 68.6719 206.93 68.7812 207.352 68.8906C207.789 68.9844 208.227 69.0312 208.664 69.0312C209.133 69.0312 209.57 68.9766 209.977 68.8672C210.398 68.7578 210.781 68.5938 211.125 68.375C211.484 68.1562 211.789 67.8438 212.039 67.4375C212.305 67.0156 212.438 66.5234 212.438 65.9609C212.438 65.0391 212.055 64.2344 211.289 63.5469C210.68 63 210.039 62.5625 209.367 62.2344C208.898 61.9688 208.391 61.6875 207.844 61.3906C207.312 61.0938 206.812 60.75 206.344 60.3594C205.875 59.9688 205.5 59.5391 205.219 59.0703C204.938 58.5859 204.797 58.0312 204.797 57.4062C204.797 55.9688 205.227 54.9219 206.086 54.2656C206.961 53.5938 208.086 53.2578 209.461 53.2578C209.805 53.2578 210.156 53.2891 210.516 53.3516C210.875 53.4141 211.219 53.4844 211.547 53.5625C212.141 53.7031 212.602 53.8359 212.93 53.9609V55.25C212.852 55.2188 212.414 55.0781 211.617 54.8281C210.82 54.5625 210.031 54.4297 209.25 54.4297C208.422 54.4297 207.711 54.6719 207.117 55.1562C206.539 55.6406 206.25 56.3438 206.25 57.2656C206.25 57.625 206.336 57.9531 206.508 58.25C206.695 58.5469 206.898 58.8203 207.117 59.0703C207.383 59.3047 207.672 59.5312 207.984 59.75C208.297 59.9531 208.609 60.1484 208.922 60.3359C210.031 60.9141 210.852 61.3906 211.383 61.7656C211.914 62.125 212.359 62.4766 212.719 62.8203C213.516 63.6328 213.914 64.5781 213.914 65.6562ZM224.273 64.2969C224.273 63.625 224.195 62.9766 224.039 62.3516C223.898 61.7109 223.672 61.1719 223.359 60.7344C223.062 60.2969 222.695 59.9609 222.258 59.7266C221.82 59.4922 221.367 59.375 220.898 59.375C220.43 59.375 219.977 59.4922 219.539 59.7266C219.102 59.9609 218.734 60.2969 218.438 60.7344C218.125 61.1719 217.891 61.7109 217.734 62.3516C217.594 62.9766 217.523 63.625 217.523 64.2969C217.523 64.9688 217.594 65.625 217.734 66.2656C217.891 66.8906 218.125 67.4141 218.438 67.8359C218.734 68.2891 219.102 68.6328 219.539 68.8672C219.977 69.1016 220.43 69.2188 220.898 69.2188C221.367 69.2188 221.82 69.1016 222.258 68.8672C222.695 68.6328 223.062 68.2891 223.359 67.8359C223.672 67.4141 223.898 66.8906 224.039 66.2656C224.195 65.625 224.273 64.9688 224.273 64.2969ZM225.773 64.2969C225.773 65.0469 225.68 65.7812 225.492 66.5C225.305 67.2031 225.039 67.8047 224.695 68.3047C224.305 68.8828 223.781 69.3594 223.125 69.7344C222.484 70.0938 221.742 70.2734 220.898 70.2734C220.055 70.2734 219.305 70.0938 218.648 69.7344C218.008 69.3594 217.492 68.8828 217.102 68.3047C216.758 67.8047 216.492 67.2031 216.305 66.5C216.117 65.7812 216.023 65.0469 216.023 64.2969C216.023 63.5469 216.117 62.8203 216.305 62.1172C216.492 61.3984 216.758 60.7891 217.102 60.2891C217.492 59.7109 218.008 59.2422 218.648 58.8828C219.305 58.5078 220.055 58.3203 220.898 58.3203C221.742 58.3203 222.484 58.5078 223.125 58.8828C223.781 59.2422 224.305 59.7109 224.695 60.2891C225.039 60.7891 225.305 61.3984 225.492 62.1172C225.68 62.8203 225.773 63.5469 225.773 64.2969ZM230.156 70.0156H228.727V53.5625H230.156V70.0156ZM233.719 58.5781H235.102V66.125C235.102 66.9375 235.312 67.6641 235.734 68.3047C236.109 68.8359 236.719 69.1016 237.562 69.1016C238.297 69.1016 238.938 68.7812 239.484 68.1406C240.047 67.4844 240.461 66.5547 240.727 65.3516C240.789 65.0391 240.828 64.7422 240.844 64.4609C240.875 64.1641 240.891 63.875 240.891 63.5938V58.5781H242.25V70.0156H240.891V67.5312C240.562 68.4062 240.109 69.0781 239.531 69.5469C238.906 70.0469 238.195 70.2969 237.398 70.2969C236.242 70.2969 235.359 69.9844 234.75 69.3594C234.062 68.7031 233.719 67.6875 233.719 66.3125V58.5781ZM250.992 59.6562H247.969V66.2891C247.969 66.6484 247.969 66.9922 247.969 67.3203C247.969 67.6484 248.039 67.9766 248.18 68.3047C248.305 68.6016 248.508 68.8203 248.789 68.9609C249.07 69.1016 249.406 69.1719 249.797 69.1719C250.219 69.1719 250.602 69.1406 250.945 69.0781V70.2031C250.602 70.25 250.133 70.2734 249.539 70.2734C248.492 70.2734 247.734 70.0547 247.266 69.6172C246.812 69.1641 246.586 68.4219 246.586 67.3906V59.6562H244.758V58.5781H246.586V55.7656L247.969 55.0625V58.5781H250.992V59.6562ZM255.305 55.5312H253.547V53.5625H255.305V55.5312ZM255.164 70.0156H253.734V58.5781H255.164V70.0156ZM266.367 64.2969C266.367 63.625 266.289 62.9766 266.133 62.3516C265.992 61.7109 265.766 61.1719 265.453 60.7344C265.156 60.2969 264.789 59.9609 264.352 59.7266C263.914 59.4922 263.461 59.375 262.992 59.375C262.523 59.375 262.07 59.4922 261.633 59.7266C261.195 59.9609 260.828 60.2969 260.531 60.7344C260.219 61.1719 259.984 61.7109 259.828 62.3516C259.688 62.9766 259.617 63.625 259.617 64.2969C259.617 64.9688 259.688 65.625 259.828 66.2656C259.984 66.8906 260.219 67.4141 260.531 67.8359C260.828 68.2891 261.195 68.6328 261.633 68.8672C262.07 69.1016 262.523 69.2188 262.992 69.2188C263.461 69.2188 263.914 69.1016 264.352 68.8672C264.789 68.6328 265.156 68.2891 265.453 67.8359C265.766 67.4141 265.992 66.8906 266.133 66.2656C266.289 65.625 266.367 64.9688 266.367 64.2969ZM267.867 64.2969C267.867 65.0469 267.773 65.7812 267.586 66.5C267.398 67.2031 267.133 67.8047 266.789 68.3047C266.398 68.8828 265.875 69.3594 265.219 69.7344C264.578 70.0938 263.836 70.2734 262.992 70.2734C262.148 70.2734 261.398 70.0938 260.742 69.7344C260.102 69.3594 259.586 68.8828 259.195 68.3047C258.852 67.8047 258.586 67.2031 258.398 66.5C258.211 65.7812 258.117 65.0469 258.117 64.2969C258.117 63.5469 258.211 62.8203 258.398 62.1172C258.586 61.3984 258.852 60.7891 259.195 60.2891C259.586 59.7109 260.102 59.2422 260.742 58.8828C261.398 58.5078 262.148 58.3203 262.992 58.3203C263.836 58.3203 264.578 58.5078 265.219 58.8828C265.875 59.2422 266.398 59.7109 266.789 60.2891C267.133 60.7891 267.398 61.3984 267.586 62.1172C267.773 62.8203 267.867 63.5469 267.867 64.2969ZM279.258 70.0156H277.875V62.4688C277.875 61.6094 277.664 60.8828 277.242 60.2891C276.883 59.7578 276.273 59.4922 275.414 59.4922C274.68 59.4922 274.031 59.8203 273.469 60.4766C272.922 61.1172 272.516 62.0391 272.25 63.2422C272.188 63.5391 272.141 63.8359 272.109 64.1328C272.094 64.4297 272.086 64.7188 272.086 65V70.0156H270.727V58.5781H272.086V61.0625C272.414 60.1719 272.867 59.5 273.445 59.0469C274.07 58.5469 274.781 58.2969 275.578 58.2969C276.734 58.2969 277.617 58.6094 278.227 59.2344C278.914 59.8906 279.258 60.9062 279.258 62.2812V70.0156ZM289.453 67.1094C289.453 67.5625 289.367 67.9922 289.195 68.3984C289.039 68.8047 288.82 69.1328 288.539 69.3828C288.18 69.6641 287.695 69.8828 287.086 70.0391C286.492 70.1953 285.828 70.2734 285.094 70.2734C284.234 70.2734 283.227 70.0859 282.07 69.7109V68.375C282.195 68.4375 282.602 68.5859 283.289 68.8203C283.977 69.0547 284.578 69.1719 285.094 69.1719C285.969 69.1719 286.633 69.0469 287.086 68.7969C287.742 68.3906 288.07 67.8672 288.07 67.2266C288.07 66.7891 287.953 66.4219 287.719 66.125C287.484 65.8281 287.188 65.5781 286.828 65.375C286.453 65.1875 285.984 64.9844 285.422 64.7656C284.859 64.5312 284.32 64.2812 283.805 64.0156C283.383 63.7969 282.992 63.4766 282.633 63.0547C282.289 62.6172 282.117 62.0469 282.117 61.3438C282.117 60.3906 282.461 59.6484 283.148 59.1172C283.852 58.5703 284.781 58.2969 285.938 58.2969C286.906 58.2969 287.859 58.4531 288.797 58.7656V60.0547C288.688 60.0078 288.32 59.8828 287.695 59.6797C287.086 59.4609 286.43 59.3516 285.727 59.3516C285.164 59.3516 284.641 59.5078 284.156 59.8203C283.688 60.1328 283.453 60.5547 283.453 61.0859C283.453 61.4766 283.523 61.8047 283.664 62.0703C283.82 62.3203 284.07 62.5547 284.414 62.7734C284.727 62.9922 285.219 63.2344 285.891 63.5C286.578 63.75 287.148 64 287.602 64.25C288.102 64.5 288.531 64.8672 288.891 65.3516C289.266 65.8203 289.453 66.4062 289.453 67.1094Z" fill="black"/>
<defs>
<linearGradient id="paint0_linear_75_3" x1="9.5" y1="28.7551" x2="9.5" y2="75.7823" gradientUnits="userSpaceOnUse">
<stop offset="0.123598" stop-color="#DED1C6"/>
<stop offset="0.485197" stop-color="#A77693"/>
<stop offset="0.767696" stop-color="#174871"/>
<stop offset="1" stop-color="#0F2D4D"/>
</linearGradient>
<linearGradient id="paint1_linear_75_3" x1="30.5" y1="21" x2="30.5" y2="84" gradientUnits="userSpaceOnUse">
<stop offset="0.144231" stop-color="#0F2D4D"/>
<stop offset="0.649038" stop-color="#A77693"/>
</linearGradient>
<linearGradient id="paint2_linear_75_3" x1="22.7544" y1="9.5" x2="61.1316" y2="9.5" gradientUnits="userSpaceOnUse">
<stop stop-color="#0F2D4D"/>
<stop offset="0.433704" stop-color="#174871"/>
<stop offset="0.865685" stop-color="#2C5C88"/>
</linearGradient>
<linearGradient id="paint3_linear_75_3" x1="18.7485" y1="1.64349" x2="-0.927914" y2="14.9375" gradientUnits="userSpaceOnUse">
<stop offset="0.153846" stop-color="#0F2D4D"/>
<stop offset="0.466346" stop-color="#A77693"/>
<stop offset="0.730769" stop-color="#DED1C6"/>
</linearGradient>
<linearGradient id="paint4_linear_75_3" x1="94.5" y1="30" x2="283.5" y2="30" gradientUnits="userSpaceOnUse">
<stop stop-color="#0F2D4D"/>
<stop offset="0.5" stop-color="#174871"/>
<stop offset="0.75" stop-color="#A77693"/>
<stop offset="1" stop-color="#DED1C6"/>
</linearGradient>
</defs>
</svg>
